<?xml version="1.0" encoding="utf-8"?>
<!-- Generator: Adobe Illustrator 16.0.0, SVG Export Plug-In . SVG Version: 6.00 Build 0)  -->
<!DOCTYPE svg PUBLIC "-//W3C//DTD SVG 1.1//EN" "http://www.w3.org/Graphics/SVG/1.1/DTD/svg11.dtd">
<svg version="1.1" id="Calque_1" xmlns="http://www.w3.org/2000/svg" xmlns:xlink="http://www.w3.org/1999/xlink" x="0px" y="0px"
	 width="436.955px" height="279.239px" viewBox="0 0 436.955 279.239" enable-background="new 0 0 436.955 279.239"
	 xml:space="preserve">
<g>
	<g>
		<rect x="25.008" y="240.179" fill="#5CC1D4" width="15.657" height="22.156"/>
		<rect x="47.833" y="230.517" fill="#256388" width="15.656" height="31.818"/>
		<rect x="70.661" y="202.182" fill="#FAC13E" width="15.654" height="60.154"/>
		<rect x="93.486" y="213.065" fill="#256388" width="15.656" height="49.27"/>
		<rect x="116.313" y="166.979" fill="#256388" width="15.657" height="95.356"/>
	</g>
	<g>
		<g>
			<polygon fill="#3F4443" points="4.48,244.16 4.027,243.735 18.155,228.667 33.33,230.187 43.946,214.346 59.312,214.346 
				77.602,172.338 96.743,192.627 123.868,144.073 124.412,144.377 96.873,193.675 77.798,173.453 59.723,214.97 44.28,214.97 
				33.639,230.847 18.399,229.319 			"/>
		</g>
		<circle fill="#E72E58" cx="77.798" cy="173.453" r="2.323"/>
		<path fill="#E72E58" d="M121.817,144.073c0-1.286,1.041-2.325,2.324-2.325c1.281,0,2.322,1.039,2.322,2.325
			c0,1.281-1.041,2.322-2.322,2.322C122.858,146.396,121.817,145.354,121.817,144.073z"/>
		<path fill="#E72E58" d="M41.818,214.659c0-1.286,1.043-2.325,2.324-2.325c1.284,0,2.324,1.039,2.324,2.325
			c0,1.281-1.041,2.322-2.324,2.322C42.861,216.981,41.818,215.94,41.818,214.659z"/>
		<circle fill="#E72E58" cx="32.835" cy="230.517" r="2.323"/>
	</g>
</g>
<path fill="#C7DBF3" d="M184.705,176.222c-0.334,0.153-0.642,0.215-0.902,0.15C183.66,176.337,183.984,176.285,184.705,176.222z"/>
<g>
	<g>
		<g>
			<circle fill="#5CC1D4" cx="304.5" cy="99.501" r="86.446"/>
			<path fill="#1A2944" d="M390.95,99.502c0,5.316-0.481,10.521-1.402,15.572c-3.518-0.509-7.764-4.042-11.478-1.503
				c-4.238,2.896-12.145,9.479-22.634,9.892c-10.493,0.411-24.524-12.497-38.313-7.102c-13.788,5.396-19.401-0.804-20.069-5.329
				c-1.041-7.041,4.701-7.634,3.941-11.531c-0.762-3.896,2.684-13.878,14.374-13.878s17.086-5.996,18.585-8.693
				c1.499-2.699,10.492-0.6,15.287-5.696c4.799-5.096-3.596-14.089,0-20.084c3.598-5.995,21.286-7.452,21.286-7.452
				C383.268,58.756,390.95,78.232,390.95,99.502z"/>
			<path fill="#256388" d="M263.51,84.809c-4.197,5.911,1.499,18.201-2.099,24.495c-3.597,6.295-10.49,5.096-15.587,8.094
				c-4.425,2.603-6.196,13.339-20.388,17.104c-4.745-10.698-7.379-22.542-7.379-35c0-6.385,0.691-12.606,2.005-18.596
				c2.896-2.924,6.865-5.551,12.273-6.975c17.087-4.496,23.381-13.188,29.077-9.292C267.107,68.536,267.706,78.897,263.51,84.809z"
				/>
			<path fill="#256388" d="M327.959,52.199c0,0-10.492-2.098-16.187,1.499c-5.696,3.597-17.236,10.043-15.737,13.79
				c1.499,3.747,9.451,8.005,16.936,6.444c4.405-0.917,14.886-4.946,20.448-5.126C342.485,68.509,338.587,52.551,327.959,52.199z"/>
			<path fill="#1A2944" d="M278.033,155.061c-4.586,3.345-5.677,13.625-8.614,15.05c-1.471,0.714-3.737,3.286-5.625,5.671
				c-11.912-6.369-22.158-15.449-29.913-26.415c5.191-3.6,14.921-9.683,21.672-9.85c0,0,3.373-0.039,5.874-6.893
				c0.984-2.7,2.042-5.097,3.265-6.899c1.882-2.774,4.156-4.146,7.173-3.063c1.294,0.463,2.105,1.188,2.715,2.1
				c1.749,2.601,1.855,6.729,6.774,10.71C287.997,140.851,282.62,151.716,278.033,155.061z"/>
		</g>
		<path fill="#EC6558" d="M270.564,42.775c0.146,0.101,0.427-0.042,0.686-0.326l1.591,1.112c-0.271,0.342-0.493,0.731-0.649,1.165
			c-0.1,0.285-0.166,0.575-0.201,0.863l-1.737-0.547c0.065-0.38,0.008-0.69-0.16-0.744c-0.208-0.066-0.504,0.284-0.663,0.78
			c-0.155,0.496-0.113,0.951,0.094,1.017c0.168,0.054,0.395-0.167,0.558-0.515l1.88,0.593c0.011,0.521,0.123,1.028,0.323,1.5
			l-2.086,0.483c-0.136-0.361-0.344-0.598-0.516-0.557c-0.214,0.049-0.292,0.5-0.172,1.007c0.117,0.507,0.386,0.879,0.598,0.83
			c0.172-0.041,0.253-0.347,0.216-0.727l2.22-0.517c0.233,0.387,0.535,0.733,0.889,1.028l-1.395,1.851
			c-0.334-0.189-0.646-0.239-0.75-0.097c-0.133,0.175,0.098,0.57,0.513,0.883c0.417,0.312,0.859,0.425,0.993,0.25
			c0.104-0.141-0.029-0.428-0.302-0.696l1.4-1.859c0.24,0.148,0.498,0.273,0.777,0.373c0.149,0.054,0.3,0.096,0.451,0.129
			l0.221,2.375c-0.376,0.084-0.639,0.257-0.623,0.436c0.02,0.216,0.458,0.355,0.973,0.306c0.519-0.046,0.923-0.263,0.904-0.48
			c-0.018-0.177-0.307-0.298-0.693-0.313L275.7,50.14c0.603,0.05,1.203-0.033,1.756-0.241l0.865,2.22
			c-0.256,0.142-0.412,0.323-0.363,0.449c0.062,0.156,0.409,0.164,0.777,0.02c0.368-0.143,0.616-0.385,0.556-0.54
			c-0.049-0.125-0.286-0.152-0.57-0.084l-0.873-2.237c0.388-0.193,0.743-0.45,1.053-0.759l1.666,1.653
			c-0.233,0.307-0.323,0.608-0.196,0.733c0.153,0.153,0.576-0.021,0.943-0.391c0.368-0.37,0.537-0.793,0.382-0.947
			c-0.125-0.124-0.426-0.032-0.729,0.204l-1.689-1.675c0.172-0.228,0.321-0.477,0.444-0.744l2.213,0.283
			c0.003,0.404,0.119,0.715,0.302,0.739c0.224,0.028,0.463-0.39,0.532-0.933c0.068-0.543-0.058-1.008-0.282-1.037
			c-0.182-0.023-0.373,0.248-0.475,0.639l-2.077-0.265c0.142-0.485,0.193-0.977,0.154-1.457l1.987-0.53
			c0.147,0.356,0.361,0.586,0.534,0.54c0.211-0.057,0.275-0.509,0.139-1.012c-0.134-0.503-0.415-0.865-0.626-0.809
			c-0.172,0.046-0.243,0.354-0.191,0.734l-1.929,0.516c-0.13-0.587-0.386-1.138-0.754-1.613l1.085-1.542
			c0.342,0.177,0.653,0.216,0.757,0.071c0.124-0.18-0.118-0.566-0.543-0.866c-0.427-0.299-0.875-0.398-1-0.218
			c-0.102,0.145,0.041,0.426,0.323,0.686l-1.009,1.438c-0.407-0.396-0.9-0.715-1.47-0.917c-0.065-0.023-0.128-0.039-0.193-0.058
			l0.612-1.915c0.378,0.067,0.688,0.01,0.741-0.159c0.066-0.208-0.284-0.505-0.777-0.662c-0.496-0.157-0.952-0.117-1.018,0.09
			c-0.055,0.169,0.165,0.395,0.514,0.559l-0.625,1.959c-0.498-0.078-0.997-0.057-1.474,0.046l-0.522-1.942
			c0.355-0.147,0.586-0.363,0.539-0.533c-0.057-0.212-0.511-0.273-1.012-0.138c-0.504,0.136-0.864,0.416-0.806,0.626
			c0.045,0.17,0.352,0.241,0.733,0.191l0.525,1.951c-0.522,0.19-0.999,0.49-1.403,0.875l-1.652-1.155
			c0.177-0.342,0.216-0.655,0.073-0.756c-0.182-0.125-0.569,0.118-0.866,0.545C270.481,42.202,270.386,42.649,270.564,42.775z"/>
		<path fill="#EC6558" d="M252.571,45.496c0.094,0.065,0.276-0.027,0.443-0.21l1.027,0.719c-0.175,0.22-0.318,0.471-0.418,0.75
			c-0.064,0.185-0.107,0.373-0.13,0.558l-1.122-0.354c0.042-0.245,0.003-0.446-0.102-0.48c-0.135-0.043-0.327,0.182-0.428,0.503
			c-0.103,0.321-0.075,0.616,0.06,0.658c0.11,0.035,0.254-0.108,0.36-0.333l1.217,0.383c0.006,0.337,0.078,0.664,0.204,0.968
			l-1.346,0.312c-0.087-0.231-0.22-0.387-0.331-0.359c-0.14,0.031-0.188,0.324-0.114,0.651c0.078,0.328,0.251,0.566,0.388,0.535
			c0.112-0.025,0.164-0.222,0.141-0.47l1.434-0.332c0.149,0.249,0.344,0.472,0.574,0.662l-0.902,1.196
			c-0.217-0.122-0.417-0.154-0.486-0.062c-0.084,0.113,0.065,0.369,0.334,0.57c0.266,0.203,0.553,0.275,0.639,0.163
			c0.068-0.091-0.018-0.276-0.195-0.45l0.905-1.202c0.156,0.096,0.321,0.177,0.501,0.242c0.096,0.034,0.193,0.061,0.292,0.084
			l0.145,1.533c-0.245,0.055-0.415,0.168-0.404,0.282c0.014,0.14,0.294,0.23,0.63,0.198c0.334-0.03,0.595-0.17,0.582-0.31
			c-0.01-0.115-0.198-0.194-0.448-0.203l-0.131-1.445c0.391,0.033,0.777-0.021,1.134-0.156l0.56,1.436
			c-0.166,0.091-0.267,0.208-0.235,0.29c0.039,0.099,0.263,0.105,0.501,0.012c0.238-0.093,0.399-0.249,0.36-0.348
			c-0.031-0.081-0.187-0.1-0.369-0.053l-0.562-1.447c0.25-0.124,0.479-0.29,0.68-0.489l1.076,1.067
			c-0.149,0.198-0.209,0.394-0.128,0.473c0.101,0.1,0.373-0.013,0.612-0.25c0.235-0.24,0.345-0.514,0.246-0.614
			c-0.08-0.081-0.274-0.02-0.472,0.133l-1.09-1.083c0.11-0.147,0.205-0.308,0.287-0.479l1.429,0.182
			c0,0.261,0.076,0.461,0.195,0.475c0.146,0.02,0.298-0.25,0.342-0.601c0.043-0.353-0.038-0.651-0.18-0.67
			c-0.12-0.015-0.243,0.16-0.308,0.413l-1.343-0.17c0.094-0.313,0.126-0.631,0.101-0.941l1.281-0.342
			c0.098,0.23,0.237,0.378,0.348,0.349c0.136-0.037,0.176-0.33,0.09-0.655c-0.087-0.325-0.268-0.558-0.405-0.521
			c-0.11,0.029-0.156,0.226-0.124,0.474l-1.246,0.332c-0.083-0.377-0.25-0.733-0.487-1.04l0.703-0.998
			c0.219,0.115,0.422,0.141,0.488,0.047c0.082-0.116-0.077-0.365-0.352-0.559c-0.274-0.195-0.562-0.257-0.644-0.142
			c-0.068,0.094,0.026,0.275,0.209,0.443l-0.654,0.929c-0.263-0.257-0.581-0.461-0.951-0.593c-0.041-0.014-0.081-0.025-0.123-0.036
			l0.394-1.237c0.245,0.042,0.446,0.006,0.48-0.104c0.044-0.133-0.184-0.325-0.503-0.427c-0.321-0.102-0.614-0.076-0.657,0.059
			c-0.036,0.109,0.107,0.255,0.331,0.361l-0.403,1.265c-0.323-0.051-0.644-0.037-0.954,0.03l-0.337-1.255
			c0.23-0.095,0.38-0.234,0.349-0.345c-0.038-0.136-0.33-0.176-0.654-0.088c-0.325,0.087-0.558,0.269-0.522,0.405
			c0.029,0.111,0.23,0.156,0.477,0.124l0.339,1.259c-0.339,0.124-0.646,0.317-0.909,0.567l-1.065-0.748
			c0.113-0.221,0.139-0.423,0.045-0.487c-0.115-0.082-0.365,0.076-0.558,0.351C252.52,45.126,252.455,45.414,252.571,45.496z"/>
		<path fill="#EC6558" d="M234.581,83.603c0.235,0.165,0.696-0.068,1.118-0.531l2.589,1.812c-0.441,0.556-0.805,1.189-1.054,1.895
			c-0.166,0.466-0.27,0.936-0.328,1.406l-2.829-0.895c0.108-0.616,0.013-1.12-0.26-1.208c-0.341-0.107-0.824,0.461-1.079,1.27
			c-0.255,0.808-0.187,1.549,0.154,1.655c0.272,0.088,0.641-0.272,0.905-0.839l3.063,0.969c0.019,0.847,0.199,1.672,0.521,2.438
			l-3.396,0.789c-0.219-0.586-0.555-0.972-0.836-0.908c-0.347,0.08-0.472,0.813-0.283,1.64c0.194,0.825,0.629,1.431,0.977,1.35
			c0.281-0.064,0.414-0.561,0.352-1.184l3.614-0.839c0.381,0.629,0.87,1.193,1.445,1.672l-2.268,3.013
			c-0.545-0.308-1.051-0.389-1.226-0.158c-0.214,0.285,0.162,0.929,0.839,1.437c0.676,0.51,1.4,0.695,1.614,0.41
			c0.172-0.23-0.045-0.695-0.492-1.136L240,94.634c0.393,0.242,0.814,0.448,1.265,0.607c0.247,0.087,0.492,0.155,0.738,0.211
			l0.355,3.867c-0.61,0.138-1.04,0.419-1.012,0.707c0.032,0.353,0.743,0.578,1.586,0.5c0.845-0.079,1.502-0.428,1.47-0.782
			c-0.027-0.288-0.501-0.486-1.126-0.512l-0.337-3.637c0.987,0.08,1.963-0.058,2.862-0.396l1.408,3.617
			c-0.416,0.229-0.67,0.525-0.591,0.728c0.098,0.252,0.662,0.267,1.262,0.033c0.599-0.232,1.005-0.626,0.907-0.878
			c-0.079-0.203-0.465-0.248-0.928-0.135l-1.419-3.644c0.629-0.316,1.208-0.733,1.713-1.234l2.712,2.689
			c-0.378,0.499-0.527,0.991-0.324,1.194c0.256,0.251,0.944-0.033,1.542-0.636c0.596-0.602,0.875-1.292,0.623-1.543
			c-0.204-0.204-0.694-0.051-1.191,0.332l-2.748-2.728c0.279-0.37,0.522-0.774,0.723-1.21l3.604,0.46
			c0.003,0.66,0.191,1.163,0.489,1.201c0.366,0.047,0.754-0.633,0.868-1.519c0.112-0.884-0.094-1.64-0.461-1.686
			c-0.295-0.038-0.604,0.402-0.772,1.041l-3.382-0.43c0.232-0.79,0.313-1.592,0.25-2.372l3.236-0.864
			c0.243,0.579,0.59,0.955,0.869,0.88c0.344-0.091,0.445-0.829,0.229-1.649c-0.219-0.818-0.676-1.408-1.02-1.315
			c-0.277,0.074-0.396,0.573-0.314,1.194l-3.136,0.839c-0.212-0.954-0.631-1.849-1.228-2.624l1.768-2.512
			c0.555,0.289,1.064,0.352,1.229,0.117c0.205-0.291-0.191-0.922-0.884-1.409c-0.694-0.489-1.422-0.646-1.625-0.356
			c-0.167,0.236,0.065,0.695,0.527,1.119l-1.645,2.338c-0.665-0.644-1.468-1.163-2.396-1.493c-0.103-0.036-0.209-0.061-0.31-0.093
			l0.991-3.118c0.618,0.11,1.121,0.017,1.208-0.256c0.109-0.34-0.461-0.824-1.265-1.081c-0.808-0.256-1.549-0.189-1.659,0.15
			c-0.086,0.273,0.271,0.642,0.838,0.907l-1.012,3.189c-0.818-0.126-1.627-0.092-2.404,0.076l-0.853-3.162
			c0.581-0.24,0.955-0.591,0.879-0.87c-0.091-0.343-0.831-0.442-1.648-0.223c-0.819,0.22-1.408,0.677-1.314,1.021
			c0.075,0.277,0.574,0.393,1.196,0.311l0.853,3.175c-0.845,0.312-1.624,0.799-2.285,1.426l-2.683-1.88
			c0.287-0.556,0.35-1.065,0.113-1.231c-0.292-0.204-0.921,0.194-1.408,0.889C234.446,82.669,234.29,83.397,234.581,83.603z"/>
		<circle fill="#FAC13E" cx="269.539" cy="139.575" r="2.115"/>
		<circle fill="#FAC13E" cx="313.835" cy="94.051" r="1.649"/>
		<circle fill="#FAC13E" cx="268.271" cy="155.804" r="3.384"/>
		<g>
			<g>
				<g>
					<circle fill="#FAC13E" cx="354.042" cy="111.032" r="1.395"/>
					<circle fill="#FAC13E" cx="354.758" cy="113.677" r="1.395"/>
					<circle fill="#FAC13E" cx="354.073" cy="116.329" r="1.396"/>
					<circle fill="#FAC13E" cx="351.741" cy="117.756" r="1.394"/>
					<circle fill="#FAC13E" cx="349.207" cy="117.102" r="1.394"/>
				</g>
				<g>
					<circle fill="#FAC13E" cx="347.528" cy="106.951" r="1.394"/>
					<circle fill="#FAC13E" cx="348.82" cy="104.46" r="1.395"/>
					<circle fill="#FAC13E" cx="350.754" cy="102.509" r="1.395"/>
					<circle fill="#FAC13E" cx="353.473" cy="102.096" r="1.395"/>
					<circle fill="#FAC13E" cx="356.134" cy="102.596" r="1.394"/>
				</g>
				<circle fill="#FAC13E" cx="346.339" cy="112.776" r="0.793"/>
				<circle fill="#FAC13E" cx="342.485" cy="107.552" r="0.793"/>
			</g>
			<g>
				<path fill="#AE5A1A" d="M333.483,110.828h-8.824c-0.602,0-1.095-0.494-1.095-1.095l0,0c0-0.603,0.493-1.096,1.095-1.096h8.824
					c0.602,0,1.097,0.493,1.097,1.096l0,0C334.58,110.334,334.085,110.828,333.483,110.828z"/>
				<path fill="#AE5A1A" d="M372.561,110.828h-8.822c-0.603,0-1.096-0.494-1.096-1.095l0,0c0-0.603,0.493-1.096,1.096-1.096h8.822
					c0.604,0,1.099,0.493,1.099,1.096l0,0C373.659,110.334,373.165,110.828,372.561,110.828z"/>
			</g>
			<g>
				<path fill="#AE5A1A" d="M348.612,94.605v-8.824c0-0.603,0.493-1.096,1.095-1.096l0,0c0.602,0,1.095,0.493,1.095,1.096v8.824
					c0,0.603-0.493,1.096-1.095,1.096l0,0C349.105,95.701,348.612,95.208,348.612,94.605z"/>
				<path fill="#AE5A1A" d="M348.612,133.685v-8.825c0-0.603,0.493-1.095,1.095-1.095l0,0c0.602,0,1.095,0.492,1.095,1.095v8.825
					c0,0.603-0.493,1.095-1.095,1.095l0,0C349.105,134.779,348.612,134.288,348.612,133.685z"/>
			</g>
		</g>
	</g>
	<path opacity="0.8" fill="#F9FCFF" d="M311.142,13.233c0,0-6.866,6.385-14.084,9.926c-7.22,3.541-15.993,3.147-28.975,8.067
		c-7.974,3.021-15.767,3.444-20.59,3.318c2.054-1.808,4.194-3.522,6.413-5.13c14.244-10.333,31.76-16.425,50.705-16.425
		C306.807,12.989,308.986,13.07,311.142,13.233z"/>
</g>
<g>
	<path fill="#B78F6A" d="M215.877,141.841c0,0,0.146-0.315,0.667-0.634c0.393-0.395,1.389-1.799,1.508-2.117
		c0.224-0.609,0.854-0.078,0.964,0.525c0.037,0.205-0.397,0.789-0.46,0.996c1.267-0.131,3.106-0.016,5.766,0.678
		c0,0,2.076,0.448,0.209,1.711c-1.247,0.845-2,0.6-3.776,1.763c-1.778,1.162-3.945,1.405-5.233,0.511l-1.735-0.358l-0.193-3.022
		L215.877,141.841z"/>
	<path fill="#B7CDC9" d="M169.03,108.889c0,0-6.675,15.938,14.16,31.401c5.625,4.175,31.364,5.752,31.364,5.752
		s0.908-3.157-0.749-4.579c0,0-18.161-6.396-21.59-7.126c-1.896-0.405-5.229-15.602-9.011-19.473
		C179.422,110.993,169.03,108.889,169.03,108.889z"/>
</g>
<path fill="#121115" d="M153.986,255.222c0,0,0.467,7.526,1.922,7.633c0.194,0.017,7.387,0.017,7.387,0.017l9.178-0.055
	c0,0-0.06-2.211-2.743-2.678c-2.686-0.469-7.175-2.354-8.801-5.9C159.221,250.507,153.986,255.222,153.986,255.222z"/>
<path fill="#576579" d="M153.458,255.744c0,0,2.791,0.935,4.968,0.935c2.431,0,4.641-0.662,4.641-0.662s0.524-5.081,3.415-16.275
	c1.517-5.867,3.682-13.412,6.761-22.787c8.514-25.908,11.103-41.066,11.34-42.5c0.011-0.074,0.018-0.113,0.018-0.113l-0.029-0.013
	l-26.175-11.495c0,0,3.235,35.71-0.894,49.416c-0.579,1.916-1.074,4.148-1.499,6.566
	C153.397,233.702,153.458,255.744,153.458,255.744z"/>
<path fill="#3F4443" d="M156.004,218.816l10.478,20.926c1.517-5.867,3.682-13.412,6.761-22.787
	c8.514-25.908,11.103-41.066,11.34-42.5c-0.002-0.042-0.005-0.084-0.012-0.126l-26.175-11.495c0,0,3.235,35.71-0.894,49.416
	C156.924,214.165,156.429,216.397,156.004,218.816z"/>
<path fill="#121115" d="M174.433,255.222c0,0,0.467,7.526,1.924,7.633c0.191,0.017,7.384,0.017,7.384,0.017l9.178-0.055
	c0,0-0.058-2.211-2.741-2.678c-2.683-0.469-7.177-2.354-8.802-5.9C179.666,250.507,174.433,255.222,174.433,255.222z"/>
<path fill="#576579" d="M188.878,163.561c0,0,0.537,23.135-3.224,51.577c-3.763,28.445-2.303,40.492-2.303,40.492
	s-2.741,0.915-3.853,1.016c-2.827,0.253-5.734-0.615-5.734-0.615s-5.97-28.373-4.448-42.605c1.522-14.232-8.263-48.726-8.263-48.726
	L188.878,163.561z"/>
<path fill="#FACDA9" d="M170.712,109.528l5.11,3.35l7.382-1.376c-0.103-0.596-0.589-3.067-1.032-5.304
	c-0.027-0.131-0.055-0.264-0.08-0.393c-0.379-1.904-0.709-3.54-0.709-3.54l-6.896-3.043l-2.573-1.134
	c0.008,0.041,0.201,2.114,0.227,2.416C172.626,105.877,170.712,109.528,170.712,109.528z"/>
<path fill="#FFFFFF" d="M190.801,164.677c-0.104,12.215-0.918,40.788-1.519,41.368c-6.362,6.14-34.341-1.684-35.827-8.45
	c-1.481-6.765,5.639-86.739,16.503-89.933c2.255-0.662,14.31,3.234,14.31,3.234s1.889,4.946,3.13,11.248
	c0.459,2.334,1.958,18.992,2.834,30.124c0.233,2.967,0.421,5.54,0.532,7.345C190.81,160.359,190.821,162.176,190.801,164.677z"/>
<path fill="#B78F6A" d="M172.662,100.6c1.512,2.565,7.157,4.783,9.511,5.599c-0.027-0.131-0.055-0.264-0.08-0.393
	c-0.379-1.904-0.709-3.54-0.709-3.54l-6.896-3.043C172.963,99.203,172.036,99.543,172.662,100.6z"/>
<path fill="#FACDA9" d="M183.984,101.847c0,0-11.108,3.465-13.161-3.486c-2.052-6.951-4.866-11.185,2.14-13.691
	c7.004-2.506,9.172-0.262,10.421,1.891C184.633,88.715,186.819,100.766,183.984,101.847z"/>
<path fill="#330F0E" d="M182.947,85.891c0,0-0.708,8.089-2.379,7.738c-1.674-0.352-3.19-0.611-2.946,1.826
	c0.243,2.439,2.565,5.254-2.592,5.686c-5.154,0.431-12.565-12.864-11.149-15.38C167.967,78.497,188.854,77.03,182.947,85.891z"/>
<path fill="#B7CDC9" d="M181.312,107.838c-0.141-0.06-8.268-3.706-9.219-3.392c-0.95,0.315-2.135,3.217-2.135,3.217l14.31,3.234
	C184.269,110.897,183.141,108.608,181.312,107.838z"/>
<path fill="#3F4443" d="M228.616,137.647l-23.044,58.165c-0.451,1.139-1.755,1.703-2.894,1.252l-3.627-1.437
	c-1.143-0.451-1.704-1.755-1.252-2.894l23.042-58.167c0.452-1.139,1.753-1.703,2.896-1.251l3.627,1.438
	C228.502,135.206,229.067,136.507,228.616,137.647z"/>
<g>
	<path fill="#17232E" d="M228.616,137.647l-2.554,6.439c-4.829-1.183-10.056,2.683-10.056,2.683l4.834-12.203
		c0.452-1.139,1.753-1.703,2.896-1.251l3.627,1.438C228.502,135.206,229.067,136.507,228.616,137.647z"/>
</g>
<path fill="#17232E" d="M251.598,72.2c-0.237-0.103-0.48-0.2-0.72-0.297c-18.33-7.262-39.078,1.71-46.34,20.041
	c-4.884,12.33-2.425,25.753,5.287,35.43c3.754,4.712,8.753,8.535,14.755,10.911c18.33,7.264,39.081-1.711,46.341-20.042
	C278.089,100.153,269.445,79.712,251.598,72.2z M266.31,116.415c-2.302,5.812-6.179,10.528-10.943,13.86
	c-8.18,5.72-18.985,7.35-28.959,3.398c-7.269-2.88-12.828-8.223-16.099-14.69c-3.834-7.574-4.529-16.695-1.157-25.211
	c3.95-9.974,12.538-16.73,22.306-18.772c1.684-0.352,3.404-0.567,5.143-0.633c4.13-0.151,8.36,0.528,12.452,2.148
	C264.835,82.768,272.561,100.631,266.31,116.415z"/>
<path fill="#B7CDC9" d="M190.801,164.677c-26.548-17.976-24.386-42.704-24.386-42.704c10.359,5.844,20.625,19.677,23.818,30.295
	c0.233,2.967,0.421,5.54,0.532,7.345C190.81,160.359,190.821,162.176,190.801,164.677z"/>
<g>
	<path fill="#FACDA9" d="M213.927,156.774c0,0,0.214-0.274,0.796-0.466c0.471-0.293,1.744-1.265,1.938-1.545
		c0.604-0.889,1.055-0.208,0.694,0.668c-0.078,0.191-0.431,0.568-0.539,0.756c1.262,0.159,3.027,0.688,5.46,1.969
		c0,0,1.921,0.91-0.183,1.715c-1.406,0.54-2.084,0.129-4.08,0.857c-1.996,0.727-4.163,0.471-5.212-0.691l-1.608-0.746l0.498-2.985
		L213.927,156.774z"/>
	<path fill="#FFFFFF" d="M174.204,110.897c0,0-22.551,4.294,6.636,36.952c4.667,5.223,30.843,12.714,30.843,12.714
		s1.602-2.865,0.312-4.628c0,0-19.112-13.465-21.289-13.676c-1.932-0.187-6.566-21.065-9.37-25.695
		C178.537,111.935,174.204,110.897,174.204,110.897z"/>
</g>
<g>
	<g>
		<path fill="#F9C639" d="M257.988,258.321c0,1.05-0.431,2.005-1.123,2.698c-0.692,0.692-1.647,1.122-2.696,1.122h-18.035
			c-2.1,0-3.818-1.719-3.818-3.82c0-1.049,0.43-2.004,1.122-2.697c0.691-0.691,1.646-1.121,2.697-1.121h18.035
			C256.268,254.504,257.988,256.222,257.988,258.321z"/>
		<path fill="#55C1DB" d="M248.685,258.321c0,1.05-0.432,2.005-1.123,2.698c-0.693,0.692-1.647,1.122-2.696,1.122h-8.733
			c-2.1,0-3.818-1.719-3.818-3.82c0-1.049,0.43-2.004,1.122-2.697c0.691-0.691,1.646-1.121,2.697-1.121h8.733
			C246.965,254.504,248.685,256.222,248.685,258.321z"/>
		<path fill="#E9F5F8" d="M254.413,256.555h-17.08c-0.332,0-0.603-0.271-0.603-0.602l0,0c0-0.331,0.271-0.602,0.603-0.602h17.08
			c0.331,0,0.603,0.271,0.603,0.602l0,0C255.016,256.284,254.744,256.555,254.413,256.555z"/>
	</g>
	<g>
		<path fill="#246287" d="M242.598,247.505c0.499,0.996,0.544,2.104,0.217,3.089c-0.328,0.985-1.028,1.847-2.023,2.346
			l-17.093,8.566c-1.99,0.997-4.436,0.184-5.433-1.806c-0.499-0.996-0.545-2.104-0.219-3.089c0.329-0.984,1.028-1.844,2.023-2.344
			l17.094-8.566C239.155,244.703,241.6,245.514,242.598,247.505z"/>
		<path fill="#FAC13F" d="M233.78,251.924c0.499,0.996,0.544,2.104,0.218,3.088c-0.328,0.986-1.028,1.847-2.023,2.345l-8.277,4.148
			c-1.99,0.997-4.436,0.184-5.433-1.806c-0.499-0.996-0.545-2.104-0.219-3.089c0.329-0.984,1.028-1.844,2.023-2.344l8.277-4.147
			C230.338,249.122,232.782,249.934,233.78,251.924z"/>
		<path fill="#CAE7E8" d="M238.428,247.499l-16.305,8.171c-0.282,0.142-0.628,0.026-0.77-0.255l-0.058-0.116
			c-0.142-0.283-0.026-0.628,0.256-0.771l16.305-8.171c0.281-0.141,0.628-0.027,0.77,0.256l0.059,0.115
			C238.825,247.011,238.71,247.358,238.428,247.499z"/>
	</g>
</g>
<g>
	<path fill="#B78F6A" d="M354.786,147.95c1.61-5.175,8.621-6.146,11.442-1.516c0.506,0.833,0.827,1.79,0.855,2.886
		c0.156,6.068-11.812,29.561-13.403,31.638c-2.892,3.783-20.351,12.881-20.351,12.881l-3.71-0.541c0,0,2.097-1.318,4.27-3.485
		c4.485-4.479,11.023-11.759,12.224-12.768C348.169,175.314,351.725,157.778,354.786,147.95z"/>
	<g>
		<path fill="#E9F5F8" d="M288.875,257.949l-0.193,0.108c-1.533,0.855-3.4,0.855-4.931,0l-0.415-0.232
			c-2.148-1.199-3.478-3.466-3.478-5.925V193.32h12.716v58.327C292.573,254.262,291.159,256.674,288.875,257.949z"/>
		<path fill="#5AC1D3" d="M291.741,229.4v22.277c0,2.274-1.231,4.369-3.215,5.478l-0.167,0.093c-1.332,0.745-2.954,0.745-4.287,0
			l-0.358-0.2c-1.867-1.042-3.022-3.013-3.022-5.149V229.4c0,0,3.098-0.871,5.525,0C287.812,229.974,291.741,229.4,291.741,229.4z"
			/>
		<rect x="278.967" y="191.837" fill="#5AC1D3" width="14.469" height="2.148"/>
	</g>
	<g>
		<path fill="#E9F5F8" d="M308.518,257.949l-0.191,0.108c-1.533,0.855-3.4,0.855-4.932,0l-0.415-0.232
			c-2.147-1.199-3.479-3.466-3.479-5.925V193.32h12.717v58.327C312.218,254.262,310.801,256.674,308.518,257.949z"/>
		<path fill="#FAC13F" d="M311.386,217.835v33.843c0,2.274-1.231,4.369-3.215,5.478l-0.168,0.093c-1.331,0.745-2.955,0.745-4.287,0
			l-0.36-0.2c-1.863-1.042-3.021-3.013-3.021-5.149v-34.064c0,0,3.191-0.719,5.511,0
			C307.849,218.458,311.386,217.835,311.386,217.835z"/>
		<rect x="298.611" y="191.837" fill="#FAC13F" width="14.469" height="2.148"/>
	</g>
	<g>
		<path fill="#E9F5F8" d="M340.567,249.66l-0.181,0.127c-1.434,1.013-3.289,1.21-4.905,0.52l-0.435-0.187
			c-2.262-0.966-3.824-3.08-4.083-5.525l-6.176-58.254l12.646-1.34l6.148,58.001C343.857,245.604,342.703,248.151,340.567,249.66z"
			/>
		<path fill="#9B9C9B" d="M339.839,215.595l2.919,27.527c0.24,2.261-0.765,4.473-2.62,5.785l-0.157,0.111
			c-1.244,0.88-2.858,1.051-4.261,0.452l-0.38-0.161c-1.965-0.841-3.322-2.678-3.548-4.802l-2.941-27.747
			c0,0,3.073-1.008,4.818-0.638C335.924,216.602,339.839,215.595,339.839,215.595z"/>
		
			<rect x="323.82" y="184.191" transform="matrix(0.9944 -0.1054 0.1054 0.9944 -17.6835 35.9261)" fill="#9B9C9B" width="14.467" height="2.148"/>
	</g>
	<path fill="#330F0E" d="M349.719,118.257c-0.098-0.39,8.469,3.87,8.903,4.353c4.016,4.456,2.871,10.271,0.573,10.327
		c-1.476,0.036-1.19,2.487-1.19,2.487l-16.424-6.949C341.581,128.476,343.561,116.945,349.719,118.257z"/>
	<path fill="#330F0E" d="M347.695,119.157c0,0-0.586-6.399,6.562-6.399c0,0-2.166,0.588-3.285,1.764c0,0,4.558-2.677,9.52,1.436
		c4.964,4.112,1.88,14.429,3.389,16.387c1.508,1.959,7.385,2.351,6.666,8.684c-0.718,6.333-18.647,14.264-17.498,19.504
		c0,0-7.025-10.329-2.002-15.042c0,0-2.447,2.306-2.696,5.049c0,0-0.666-5.354,2.741-7.066c3.015-1.515,5.483-7.057,5.223-8.047
		C356.052,134.434,347.695,119.157,347.695,119.157z"/>
	<path fill="#3F4443" d="M367.774,257.502l3.555-0.522c0,0,11.951-9.498,13.73-27.218c0.183-1.803,0.22-3.634,0.086-5.478
		c-0.016-0.213,0.006-0.426,0.124-0.605c0-0.001,0-0.002,0.003-0.006c0.383-0.586,1.335-2.054,2.623-4.145
		c1.271-2.058,3.444-5.949,5.837-10.315c4.309-7.863,9.326-17.268,11.048-20.263c5.482-9.545,2.839-15.965,2.839-15.965
		s-15.296-1.512-19.487-5.179l-1.511,2.327c0,0-3.312,14.671-3.156,14.739c-0.163,0.499-0.329,1.007-0.496,1.523
		c-2.616,8.072-5.626,18.162-7.265,26.379c-0.922,4.624-1.411,8.651-1.148,11.396c0.092,0.941-0.019,2.388-0.269,4.174
		C372.807,238.875,367.774,257.502,367.774,257.502z"/>
	<path fill="#121115" d="M360.32,261.998h14.828c0,0,0.355-2.26-0.419-3.975c-0.742-1.645-1.8-1.697-0.137-4.277
		c-0.941,0.971-3.97,1.373-6.113,1.083c-0.263,0.426-1.693,3.284-2.57,3.914C364.94,259.439,360.619,259.192,360.32,261.998z"/>
	<path fill="#17232E" d="M382.969,186.396c1.295,7.144,4.354,19.033,10.764,22.817c4.309-7.863,9.326-17.268,11.048-20.263
		c5.482-9.545,2.839-15.965,2.839-15.965s-15.296-1.512-19.487-5.179l-1.511,2.327c0,0-3.312,14.671-3.156,14.739
		C383.302,185.372,383.136,185.879,382.969,186.396z"/>
	<path fill="#3F4443" d="M393.366,174.088l-0.05-2.773c5.526,0.697,19.054-6.603,19.054-6.603s5.779,3.846,6.571,14.825
		c0.386,5.359,2.83,28.024,3.1,34.792c0.1,2.454,0.131,4.204,0.143,4.904c-0.001,0.003-0.001,0.005,0,0.007
		c0.004,0.213,0.104,0.401,0.234,0.571c1.144,1.453,2.135,2.993,2.994,4.589c8.432,15.687,4.023,37.002,4.023,37.002l-1.959-0.498
		c0,0-7.129-22.097-11.789-31.656c-0.79-1.621-1.509-2.882-2.109-3.611c-1.754-2.128-3.601-5.742-5.421-10.09
		c-3.442-8.223-6.784-19.072-9.166-27.473C398.821,188.104,393.366,174.088,393.366,174.088z"/>
	<path fill="#F9CCA8" d="M361.032,155.579c9.034-2.073,3.262-14.767,2.738-14.543c-1.252-0.255-4-2.453-6.459-6.745l-0.331,0.288
		l-5.548,4.864c0,0,1.281,1.892,2.36,3.745c0.843,1.451,1.559,2.879,1.446,3.371C354.792,146.91,358.624,156.132,361.032,155.579z"
		/>
	<path fill="#B7CDC9" d="M355.329,146.15c0,0-1.588,3.134-2.437,5.849c-0.847,2.715-2.967,11.349-2.967,11.349
		s4.374,4.99,10.455,4.699c0,0,3.271-5.12,2.118-9.743C361.348,153.681,355.329,146.15,355.329,146.15z"/>
	<path fill="#B78F6A" d="M351.433,139.445c0,0,1.281,1.89,2.36,3.745c3.449-2.126,3.453-6.397,3.188-8.608L351.433,139.445z"/>
	<path fill="#F9CCA8" d="M351.278,141.881c0,0,8.376-4.662,5.393-9.832c-2.982-5.171-3.91-9.255-9.385-6.499
		c-5.473,2.758-5.363,5.325-4.788,7.293C343.074,134.812,349.022,142.959,351.278,141.881z"/>
	<path fill="#330F0E" d="M341.083,129.827c0.383-2.296,1.55-2.515,2.364-2.361c3.091-5.116,8.145-3.12,8.145-3.12
		c2.699,3.387,6.602,3.965,6.602,3.965s-0.972,1.808-4.976,2.927c-1.224,0.342-2.612,0.136-3.95-0.316
		c2.777,1.549,5.682,2.143,5.682,2.143c-5.276,0.483-10.297-4.342-10.817-4.858c-0.243,0.748-0.671,2.313-0.415,3.458
		c0.347,1.555,1.729,4.372,0.886,4.737C344.603,136.402,340.508,133.27,341.083,129.827z"/>
	<path fill="#121115" d="M417.644,261.998h14.827c0,0,0.356-2.26-0.419-3.975c-0.742-1.645-1.904-2.393-1.626-4.384
		c-0.941,0.97-2.479,2.057-4.621,1.768c-0.263,0.427-1.696,2.706-2.572,3.336C422.262,259.439,417.942,259.192,417.644,261.998z"/>
	<path fill="#FFFFFF" d="M359.969,165.641c1.907,0.666,4.585,1.032,7.325,1.328c3.897,0.426,7.926,0.716,10.033,1.558
		c0.412,0.164,1.61,0.666,2.812,1.536v0.002c0,0,0.029,0.019,0.082,0.062c0.397,0.291,0.797,0.626,1.164,1.004
		c0.56,0.576,1.048,1.248,1.36,2.019c0.773,1.91-0.251,7.207-0.908,10.103c-0.263,1.165,0.287,2.368,1.348,2.918
		c1.483,0.767,2.938,1.475,4.37,2.123c0.077,0.035,0.149,0.066,0.227,0.101c-0.013-0.295-0.019-0.587-0.019-0.873
		c-0.003-1.998,0.251-3.66,0.251-3.66c0.353,2.017,1.68,4.193,2.919,5.87c19.898,7.985,33.803,4.515,33.573,0.537
		c-0.783-13.811-10.097-25.558-10.097-25.558c-17.369-20.198-52.504-25.515-52.504-25.515s-1.684-0.203-3.714,2.238
		c-2.921,3.514-3.066,4.431-3.066,4.431S354.355,163.682,359.969,165.641z"/>
	<path fill="#B7CDC9" d="M367.295,166.969c3.898,0.426,7.925,0.717,10.033,1.558c0.861-12.878-5.215-22.564-5.215-22.564
		S368.149,162.096,367.295,166.969z"/>
	<path fill="#F9CCA8" d="M363.199,143.472c0,0,9.772,0.966,10.556,7.316c0.783,6.349-9.367,32.211-10.821,34.553
		c-2.649,4.264-18.234,18.878-18.234,18.878l-2.873-1.74c0,0,11.057-18.716,12.768-20.467
		C357.282,179.26,359.891,145.672,363.199,143.472z"/>
	<path fill="#FFFFFF" d="M358.193,155.603c0,0-1.004-16.373,11.527-12.414c12.53,3.959-1.946,32.118-1.946,32.118
		s-7.354-0.364-9.962-6.78L358.193,155.603z"/>
	<path fill="#B7CDC9" d="M381.838,183.253c-0.263,1.165,0.287,2.368,1.348,2.918c1.483,0.767,2.938,1.475,4.37,2.123
		c0.077-0.245,0.146-0.5,0.208-0.771c0.226-1.008,0.33-2.214,0.251-3.66c-0.332-6.113-4.495-10.742-6.629-12.731
		c0.56,0.576,1.048,1.248,1.36,2.019C383.52,175.06,382.495,180.357,381.838,183.253z"/>
	<path fill="#B7CDC9" d="M361.906,139.196c0,0-1.53-1.934-2.566-1.872c0,0-4.181,5.854-4.214,8.541
		C355.126,145.864,360.342,138.924,361.906,139.196z"/>
	<path fill="#F9CCA8" d="M341.826,202.478c0,0-1.617,1.437-2.847,1.74c-1.231,0.303-2.63,3.828-2.854,4.331
		c-0.224,0.503,1.175-0.223,1.735-1.082c0.557-0.858,0.939-1.193,1.102-1.006c0.166,0.187-0.097,2.536-1.028,3.84
		c-0.932,1.305-1.49,2.461-0.82,2.386c0.671-0.075,4.662-1.044,5.482-3.467c0.819-2.423,0.218-2.509,2.103-5.002
		C346.586,201.725,341.826,202.478,341.826,202.478z"/>
	<rect x="271.887" y="253.189" fill="#17232E" width="76.466" height="8.937"/>
</g>
</svg>
